<svg width="40" height="40" viewBox="0 0 40 40" fill="none" xmlns="http://www.w3.org/2000/svg">
<rect opacity="0.114793" width="40" height="40" rx="12" fill="#4D4E54"/>
<path d="M20 23.1452C19.5954 23.1452 19.2675 23.4701 19.2675 23.871V26.7742C19.2675 27.175 19.5954 27.5 20 27.5C20.4046 27.5 20.7326 27.175 20.7326 26.7742V23.871C20.7326 23.4701 20.4046 23.1452 20 23.1452Z" fill="#1C222A"/>
<path fill-rule="evenodd" clip-rule="evenodd" d="M12.186 24.5968C13.6695 24.5968 14.8721 23.4053 14.8721 21.9355C14.8721 20.4657 13.6695 19.2742 12.186 19.2742C10.7026 19.2742 9.5 20.4657 9.5 21.9355C9.5 23.4053 10.7026 24.5968 12.186 24.5968ZM13.407 21.9355C13.407 22.6036 12.8604 23.1452 12.186 23.1452C11.5117 23.1452 10.9651 22.6036 10.9651 21.9355C10.9651 21.2674 11.5117 20.7258 12.186 20.7258C12.8604 20.7258 13.407 21.2674 13.407 21.9355Z" fill="#1C222A"/>
<path fill-rule="evenodd" clip-rule="evenodd" d="M22.6861 20C22.6861 18.5302 21.4835 17.3387 20 17.3387C18.5165 17.3387 17.314 18.5302 17.314 20C17.314 21.4698 18.5165 22.6613 20 22.6613C21.4835 22.6613 22.6861 21.4698 22.6861 20ZM20 18.7903C20.6744 18.7903 21.2209 19.3319 21.2209 20C21.2209 20.6681 20.6744 21.2097 20 21.2097C19.3257 21.2097 18.7791 20.6681 18.7791 20C18.7791 19.3319 19.3257 18.7903 20 18.7903Z" fill="#1C222A"/>
<path fill-rule="evenodd" clip-rule="evenodd" d="M30.5 18.0645C30.5 16.5947 29.2974 15.4032 27.8139 15.4032C26.3305 15.4032 25.1279 16.5947 25.1279 18.0645C25.1279 19.5343 26.3305 20.7258 27.8139 20.7258C29.2974 20.7258 30.5 19.5343 30.5 18.0645ZM27.8139 16.8548C28.4883 16.8548 29.0349 17.3964 29.0349 18.0645C29.0349 18.7326 28.4883 19.2742 27.8139 19.2742C27.1396 19.2742 26.593 18.7326 26.593 18.0645C26.593 17.3964 27.1396 16.8548 27.8139 16.8548Z" fill="#1C222A"/>
<path d="M27.0814 21.9355C27.0814 21.5346 27.4094 21.2097 27.8139 21.2097C28.2185 21.2097 28.5465 21.5346 28.5465 21.9355V26.7742C28.5465 27.175 28.2185 27.5 27.8139 27.5C27.4094 27.5 27.0814 27.175 27.0814 26.7742V21.9355Z" fill="#1C222A"/>
<path d="M12.186 18.7903C11.7815 18.7903 11.4535 18.4654 11.4535 18.0645V13.2258C11.4535 12.825 11.7815 12.5 12.186 12.5C12.5906 12.5 12.9186 12.825 12.9186 13.2258V18.0645C12.9186 18.4654 12.5906 18.7903 12.186 18.7903Z" fill="#1C222A"/>
<path d="M19.2675 13.2258C19.2675 12.825 19.5954 12.5 20 12.5C20.4046 12.5 20.7326 12.825 20.7326 13.2258V16.129C20.7326 16.5299 20.4046 16.8548 20 16.8548C19.5954 16.8548 19.2675 16.5299 19.2675 16.129V13.2258Z" fill="#1C222A"/>
<path d="M27.8139 12.5C27.4094 12.5 27.0814 12.825 27.0814 13.2258V14.1935C27.0814 14.5944 27.4094 14.9194 27.8139 14.9194C28.2185 14.9194 28.5465 14.5944 28.5465 14.1935V13.2258C28.5465 12.825 28.2185 12.5 27.8139 12.5Z" fill="#1C222A"/>
<path d="M11.4535 26.7742C11.4535 27.175 11.7815 27.5 12.186 27.5C12.5906 27.5 12.9186 27.175 12.9186 26.7742V25.8065C12.9186 25.4056 12.5906 25.0806 12.186 25.0806C11.7815 25.0806 11.4535 25.4056 11.4535 25.8065V26.7742Z" fill="#1C222A"/>
</svg>
