<svg width="40" height="40" viewBox="0 0 40 40" fill="none" xmlns="http://www.w3.org/2000/svg">
<rect opacity="0.114793" width="40" height="40" rx="12" fill="#4D4E54"/>
<path fill-rule="evenodd" clip-rule="evenodd" d="M25.6774 20.2581C26.9601 20.2581 28 21.2979 28 22.5806V25.6774C28 26.9601 26.9601 28 25.6774 28H14.3226C13.0399 28 12 26.9601 12 25.6774V22.5806C12 21.2979 13.0399 20.2581 14.3226 20.2581H25.6774ZM25.6774 26.4516C26.105 26.4516 26.4516 26.105 26.4516 25.6774V22.5806C26.4516 22.1531 26.105 21.8065 25.6774 21.8065H14.3226C13.895 21.8065 13.5484 22.1531 13.5484 22.5806V25.6774C13.5484 26.105 13.895 26.4516 14.3226 26.4516H25.6774Z" fill="#1C222A"/>
<path d="M25.1613 16.129H14.8387C14.4111 16.129 14.0645 16.4757 14.0645 16.9032C14.0645 17.3308 14.4111 17.6774 14.8387 17.6774H25.1613C25.5889 17.6774 25.9355 17.3308 25.9355 16.9032C25.9355 16.4757 25.5889 16.129 25.1613 16.129Z" fill="#1C222A"/>
<path d="M23.0968 12H16.9032C16.4756 12 16.129 12.3466 16.129 12.7742C16.129 13.2018 16.4756 13.5484 16.9032 13.5484H23.0968C23.5243 13.5484 23.871 13.2018 23.871 12.7742C23.871 12.3466 23.5243 12 23.0968 12V12Z" fill="#1C222A"/>
</svg>
